<?xml version="1.0" encoding="UTF-8"?>
<?xml-stylesheet href="/static/logo.css" type="text/css"?>

<svg xmlns="http://www.w3.org/2000/svg" 
    viewBox="-15 -13 120 122">

<style>
  #pack {
    stroke-width: 10;
    stroke: #ca3;
    stroke-linecap: round;
  }
  #bg {
    stroke-width: 0;
    stroke: transparent;
    fill: #172707;
  }
  #fill {
    stroke: transparent;
  }
</style>

<g id="logo" transform-origin="45 48">
  <g id="bg">
    <circle cx="45" cy="48" r="60"/>
  </g>
  <g id="fill" stroke="transparent">
    <path d="M17,66 L43,25.5 L78,44.5 L43,88 Z"/>
  </g>
  <g id="pack">
    <path id="t" d="M43.5,25.5 C 43 -3, 90 0, 79 43.5"/>
    <path id="b" d="M17,66 C 13 57, 12 60, 24 40 C 37 15, 82 22, 50.2 51" />
    <path id="p" d="M35,71 C 45 50, 80 25, 74 50"/>
    <path id="f" d="M38,95 L85.5,36"/>
    <path id="c" d="M42,73.5 C 5 57, 6 75, 7 80 Q 7 85, 37 91"/>
    <ellipse id="cf" cx="40" cy="82.5"  rx="5" ry="9" 
          transform="rotate(15, 40, 82.5)" />
  </g>
</g>
</svg>
